<svg xmlns="http://www.w3.org/2000/svg" xmlns:xlink="http://www.w3.org/1999/xlink" width="128" zoomAndPan="magnify" viewBox="0 0 96 95.999999" height="128" preserveAspectRatio="xMidYMid meet" version="1.0"><path fill="#e6e9ed" d="M 23.222656 63.480469 L 24.777344 72.757812 L 18.59375 72.757812 L 20.148438 63.480469 Z M 23.222656 63.480469 " fill-opacity="1" fill-rule="nonzero"/><path fill="#b4dd7f" d="M 33.398438 68.242188 L 34.054688 72.757812 L 24.777344 72.757812 L 23.222656 63.480469 L 26.316406 60.390625 C 30.0625 61.308594 32.855469 64.417969 33.398438 68.242188 Z M 33.398438 68.242188 " fill-opacity="1" fill-rule="nonzero"/><path fill="#b4dd7f" d="M 20.128906 63.480469 L 18.574219 72.757812 L 9.277344 72.757812 L 9.933594 68.242188 C 10.476562 64.417969 13.269531 61.308594 17.019531 60.371094 Z M 20.128906 63.480469 " fill-opacity="1" fill-rule="nonzero"/><path fill="#fcd770" d="M 73.226562 36.042969 L 68.503906 37.933594 C 67.324219 38.402344 66.554688 39.546875 66.554688 40.804688 L 66.554688 46.445312 C 66.554688 51.242188 69.648438 55.289062 73.976562 56.714844 L 72.757812 60.371094 C 70.324219 60.96875 68.296875 62.488281 67.023438 64.511719 C 62.976562 62.414062 60.371094 58.214844 60.371094 53.566406 L 60.371094 40.242188 C 60.371094 30.832031 67.980469 23.222656 77.386719 23.222656 C 78.230469 23.222656 79.039062 23.277344 79.824219 23.410156 C 83.554688 23.933594 86.890625 25.675781 89.421875 28.207031 C 92.496094 31.28125 94.40625 35.535156 94.40625 40.242188 L 94.40625 53.566406 C 94.40625 58.214844 91.800781 62.414062 87.753906 64.511719 C 87.472656 64.042969 87.132812 63.613281 86.777344 63.21875 C 85.542969 61.851562 83.890625 60.839844 82.019531 60.371094 L 80.800781 56.714844 C 82.429688 56.191406 83.875 55.273438 85.035156 54.089844 C 87.003906 52.125 88.203125 49.425781 88.203125 46.425781 L 88.203125 41.496094 C 88.203125 39.902344 87.003906 38.574219 85.410156 38.421875 L 75.457031 37.429688 C 74.519531 37.355469 73.714844 36.8125 73.226562 36.042969 Z M 73.226562 36.042969 " fill-opacity="1" fill-rule="nonzero"/><path fill="#969faa" d="M 60.3125 86.328125 C 60.351562 86.460938 60.351562 86.574219 60.351562 86.703125 C 60.351562 88.839844 59.488281 90.769531 58.082031 92.175781 C 56.679688 93.5625 54.746094 94.445312 52.609375 94.445312 C 48.769531 94.445312 45.28125 92.890625 42.769531 90.359375 C 41.925781 89.515625 41.214844 88.597656 40.617188 87.566406 C 39.378906 85.484375 38.683594 83.085938 38.683594 80.5 C 38.683594 78.363281 39.546875 76.433594 40.953125 75.027344 C 42.359375 73.640625 44.289062 72.757812 46.425781 72.757812 C 47.269531 72.757812 47.980469 73.453125 47.980469 74.316406 L 47.980469 77.988281 C 47.980469 78.570312 47.664062 79.113281 47.136719 79.375 L 44.890625 80.480469 C 44.890625 82.617188 45.75 84.546875 47.15625 85.953125 C 48.5625 87.339844 50.492188 88.222656 52.628906 88.222656 L 53.734375 85.972656 C 53.996094 85.449219 54.542969 85.128906 55.121094 85.128906 L 58.816406 85.128906 C 59.546875 85.148438 60.144531 85.636719 60.3125 86.328125 Z M 60.3125 86.328125 " fill-opacity="1" fill-rule="nonzero"/><path fill="#ff826e" d="M 77.386719 68.128906 C 79.429688 66.085938 80.96875 63.613281 81.867188 60.894531 L 82.035156 60.40625 C 83.910156 60.875 85.542969 61.871094 86.796875 63.257812 C 87.152344 63.648438 87.492188 64.101562 87.773438 64.550781 C 88.464844 65.65625 88.933594 66.910156 89.140625 68.261719 L 89.796875 72.777344 L 65.019531 72.777344 L 65.675781 68.261719 C 65.878906 66.910156 66.347656 65.636719 67.042969 64.550781 C 68.316406 62.527344 70.339844 61.007812 72.777344 60.40625 L 72.945312 60.894531 C 73.808594 63.59375 75.34375 66.085938 77.386719 68.128906 Z M 77.386719 68.128906 " fill-opacity="1" fill-rule="nonzero"/><path fill="#f0d0b4" d="M 73.976562 56.734375 C 75.046875 57.089844 76.207031 57.296875 77.40625 57.296875 C 78.605469 57.296875 79.769531 57.109375 80.835938 56.734375 L 82.054688 60.390625 L 81.886719 60.875 C 80.988281 63.59375 79.449219 66.066406 77.40625 68.109375 C 75.363281 66.066406 73.828125 63.59375 72.929688 60.875 L 72.757812 60.390625 Z M 73.976562 56.734375 " fill-opacity="1" fill-rule="nonzero"/><path fill="#f0d0b4" d="M 88.222656 41.515625 L 88.222656 46.445312 C 88.222656 49.441406 87.023438 52.140625 85.054688 54.109375 C 83.875 55.289062 82.429688 56.191406 80.820312 56.734375 C 79.75 57.109375 78.605469 57.296875 77.386719 57.296875 C 76.1875 57.296875 75.027344 57.089844 73.957031 56.734375 C 69.648438 55.308594 66.535156 51.261719 66.535156 46.464844 L 66.535156 40.820312 C 66.535156 39.566406 67.304688 38.421875 68.484375 37.953125 L 73.207031 36.0625 C 73.695312 36.8125 74.503906 37.355469 75.476562 37.449219 L 85.429688 38.441406 C 87.023438 38.589844 88.222656 39.921875 88.222656 41.515625 Z M 88.222656 41.515625 " fill-opacity="1" fill-rule="nonzero"/><path fill="#f0d0b4" d="M 23.222656 57.277344 C 23.222656 58.984375 24.609375 60.371094 26.316406 60.371094 L 23.222656 63.460938 L 20.128906 63.460938 L 17.035156 60.371094 L 18.253906 56.714844 C 19.324219 57.070312 20.484375 57.277344 21.683594 57.277344 C 22.210938 57.277344 22.714844 57.238281 23.242188 57.164062 L 23.242188 57.277344 Z M 23.222656 57.277344 " fill-opacity="1" fill-rule="nonzero"/><path fill="#f0d0b4" d="M 31.46875 51.09375 C 30.777344 52.554688 29.746094 53.847656 28.507812 54.859375 C 27.871094 54.449219 27.121094 54.183594 26.316406 54.183594 C 25.472656 54.183594 24.683594 54.523438 24.140625 55.101562 C 23.597656 55.628906 23.257812 56.378906 23.222656 57.183594 C 22.714844 57.257812 22.191406 57.296875 21.667969 57.296875 C 20.46875 57.296875 19.304688 57.089844 18.238281 56.734375 C 15.425781 55.796875 13.121094 53.753906 11.882812 51.09375 C 11.207031 49.6875 10.832031 48.113281 10.832031 46.445312 L 10.832031 40.804688 C 10.832031 39.546875 11.601562 38.402344 12.78125 37.933594 L 17.503906 36.042969 C 17.992188 36.792969 18.800781 37.335938 19.773438 37.429688 L 29.726562 38.421875 C 31.300781 38.574219 32.519531 39.902344 32.519531 41.496094 L 32.519531 46.445312 C 32.5 48.132812 32.125 49.6875 31.46875 51.09375 Z M 31.46875 51.09375 " fill-opacity="1" fill-rule="nonzero"/><path fill="#aab2bd" d="M 4.648438 42.078125 L 4.648438 37.167969 C 4.648438 28.769531 10.722656 21.796875 18.707031 20.410156 C 19.660156 20.242188 20.671875 20.148438 21.683594 20.148438 C 26.390625 20.148438 30.644531 22.058594 33.71875 25.132812 C 36.792969 28.207031 38.703125 32.460938 38.703125 37.167969 L 38.703125 42.097656 C 38.214844 41.910156 37.691406 41.816406 37.148438 41.816406 L 32.5 41.816406 L 32.5 37.167969 C 32.5 34.167969 31.300781 31.46875 29.332031 29.5 C 27.363281 27.53125 24.664062 26.332031 21.667969 26.332031 C 15.667969 26.332031 10.832031 31.167969 10.832031 37.167969 L 10.832031 41.816406 L 6.183594 41.816406 C 5.640625 41.816406 5.117188 41.910156 4.648438 42.078125 Z M 4.648438 42.078125 " fill-opacity="1" fill-rule="nonzero"/><path fill="#b27946" d="M 17.503906 36.042969 L 12.78125 37.933594 C 11.601562 38.402344 10.832031 39.546875 10.832031 40.804688 L 10.832031 37.167969 C 10.832031 31.167969 15.667969 26.332031 21.667969 26.332031 C 24.664062 26.332031 27.363281 27.53125 29.332031 29.5 C 31.300781 31.46875 32.5 34.167969 32.5 37.167969 L 32.5 41.515625 C 32.5 39.921875 31.300781 38.589844 29.707031 38.441406 L 19.753906 37.449219 C 18.800781 37.355469 17.992188 36.8125 17.503906 36.042969 Z M 17.503906 36.042969 " fill-opacity="1" fill-rule="nonzero"/><path fill="#aab2bd" d="M 30.15625 57.203125 L 30.945312 60.390625 L 26.296875 60.390625 C 24.589844 60.390625 23.203125 59.003906 23.203125 57.296875 C 23.203125 57.257812 23.203125 57.222656 23.203125 57.183594 C 23.242188 56.378906 23.578125 55.628906 24.121094 55.101562 C 24.683594 54.523438 25.453125 54.183594 26.296875 54.183594 C 27.101562 54.183594 27.851562 54.429688 28.488281 54.859375 C 29.3125 55.402344 29.914062 56.210938 30.15625 57.203125 Z M 30.15625 57.203125 " fill-opacity="1" fill-rule="nonzero"/><path fill="#aab2bd" d="M 38.703125 42.097656 C 40.523438 42.714844 41.796875 44.4375 41.796875 46.464844 C 41.796875 47.757812 41.269531 48.898438 40.429688 49.742188 C 39.585938 50.585938 38.421875 51.109375 37.148438 51.109375 L 31.46875 51.109375 C 32.144531 49.707031 32.5 48.132812 32.5 46.464844 L 32.5 41.816406 L 37.148438 41.816406 C 37.691406 41.816406 38.214844 41.910156 38.703125 42.097656 Z M 38.703125 42.097656 " fill-opacity="1" fill-rule="nonzero"/><path fill="#aab2bd" d="M 11.882812 51.09375 L 6.183594 51.09375 C 3.617188 51.09375 1.535156 49.011719 1.535156 46.445312 C 1.535156 45.152344 2.0625 44.007812 2.90625 43.164062 C 3.390625 42.675781 3.972656 42.300781 4.628906 42.078125 C 5.117188 41.890625 5.640625 41.796875 6.183594 41.796875 L 10.832031 41.796875 L 10.832031 46.445312 C 10.832031 48.132812 11.207031 49.6875 11.882812 51.09375 Z M 11.882812 51.09375 " fill-opacity="1" fill-rule="nonzero"/><path fill="#fcd770" d="M 42.246094 3.824219 C 43.21875 4.796875 44.890625 4.125 44.890625 2.738281 L 44.890625 1.574219 L 51.074219 1.574219 L 51.074219 2.753906 C 51.074219 4.125 52.742188 4.816406 53.714844 3.84375 L 54.542969 3.015625 L 58.925781 7.402344 L 58.101562 8.226562 C 57.878906 8.453125 57.746094 8.695312 57.707031 8.960938 L 57.691406 8.960938 C 57.464844 9.878906 58.121094 10.871094 59.1875 10.871094 L 60.371094 10.871094 L 60.371094 17.054688 L 59.1875 17.054688 C 57.820312 17.054688 57.128906 18.722656 58.101562 19.699219 L 58.925781 20.523438 L 54.542969 24.890625 L 53.714844 24.066406 C 52.742188 23.089844 51.074219 23.765625 51.074219 25.152344 L 51.074219 26.332031 L 44.890625 26.332031 L 44.890625 25.152344 C 44.890625 23.785156 43.21875 23.089844 42.246094 24.066406 L 41.421875 24.890625 L 37.035156 20.503906 L 37.859375 19.679688 C 38.835938 18.707031 38.160156 17.035156 36.773438 17.035156 L 35.59375 17.035156 L 35.59375 10.851562 L 36.773438 10.851562 C 37.839844 10.851562 38.496094 9.839844 38.273438 8.941406 L 38.253906 8.941406 C 38.214844 8.679688 38.066406 8.433594 37.859375 8.210938 L 37.035156 7.382812 L 41.421875 3 Z M 54.167969 13.945312 C 54.167969 10.515625 51.390625 7.757812 47.980469 7.757812 C 44.570312 7.757812 41.796875 10.535156 41.796875 13.945312 C 41.796875 17.355469 44.570312 20.128906 47.980469 20.128906 C 51.390625 20.128906 54.167969 17.375 54.167969 13.945312 Z M 54.167969 13.945312 " fill-opacity="1" fill-rule="nonzero"/><path fill="#000000" d="M 47.980469 21.683594 C 52.253906 21.683594 55.722656 18.21875 55.722656 13.945312 C 55.722656 9.671875 52.253906 6.203125 47.980469 6.203125 C 43.707031 6.203125 40.242188 9.671875 40.242188 13.945312 C 40.242188 18.21875 43.707031 21.683594 47.980469 21.683594 Z M 47.980469 9.296875 C 50.550781 9.296875 52.628906 11.375 52.628906 13.945312 C 52.628906 16.511719 50.550781 18.59375 47.980469 18.59375 C 45.414062 18.59375 43.332031 16.511719 43.332031 13.945312 C 43.332031 11.375 45.414062 9.296875 47.980469 9.296875 Z M 47.980469 9.296875 " fill-opacity="1" fill-rule="nonzero"/><path fill="#000000" d="M 46.445312 12.257812 L 49.535156 12.257812 L 49.535156 15.351562 L 46.445312 15.351562 Z M 46.445312 12.257812 " fill-opacity="1" fill-rule="nonzero"/><path fill="#000000" d="M 18.574219 44.90625 C 18.574219 45.113281 18.535156 45.3125 18.457031 45.503906 C 18.375 45.695312 18.265625 45.863281 18.117188 46.007812 C 17.972656 46.152344 17.804688 46.265625 17.613281 46.34375 C 17.421875 46.421875 17.226562 46.464844 17.019531 46.464844 C 16.8125 46.464844 16.613281 46.421875 16.421875 46.34375 C 16.234375 46.265625 16.0625 46.152344 15.917969 46.007812 C 15.773438 45.863281 15.660156 45.695312 15.582031 45.503906 C 15.503906 45.3125 15.460938 45.113281 15.460938 44.90625 C 15.460938 44.699219 15.503906 44.503906 15.582031 44.3125 C 15.660156 44.121094 15.773438 43.953125 15.917969 43.808594 C 16.0625 43.660156 16.234375 43.550781 16.421875 43.46875 C 16.613281 43.390625 16.8125 43.351562 17.019531 43.351562 C 17.226562 43.351562 17.421875 43.390625 17.613281 43.46875 C 17.804688 43.550781 17.972656 43.660156 18.117188 43.808594 C 18.265625 43.953125 18.375 44.121094 18.457031 44.3125 C 18.535156 44.503906 18.574219 44.699219 18.574219 44.90625 Z M 18.574219 44.90625 " fill-opacity="1" fill-rule="nonzero"/><path fill="#000000" d="M 27.871094 44.90625 C 27.871094 45.113281 27.832031 45.3125 27.75 45.503906 C 27.671875 45.695312 27.5625 45.863281 27.414062 46.007812 C 27.269531 46.152344 27.101562 46.265625 26.910156 46.34375 C 26.71875 46.421875 26.519531 46.464844 26.316406 46.464844 C 26.109375 46.464844 25.910156 46.421875 25.71875 46.34375 C 25.527344 46.265625 25.359375 46.152344 25.214844 46.007812 C 25.070312 45.863281 24.957031 45.695312 24.878906 45.503906 C 24.796875 45.3125 24.757812 45.113281 24.757812 44.90625 C 24.757812 44.699219 24.796875 44.503906 24.878906 44.3125 C 24.957031 44.121094 25.070312 43.953125 25.214844 43.808594 C 25.359375 43.660156 25.527344 43.550781 25.71875 43.46875 C 25.910156 43.390625 26.109375 43.351562 26.316406 43.351562 C 26.519531 43.351562 26.71875 43.390625 26.910156 43.46875 C 27.101562 43.550781 27.269531 43.660156 27.414062 43.808594 C 27.5625 43.953125 27.671875 44.121094 27.75 44.3125 C 27.832031 44.503906 27.871094 44.699219 27.871094 44.90625 Z M 27.871094 44.90625 " fill-opacity="1" fill-rule="nonzero"/><path fill="#000000" d="M 25.394531 51.09375 L 25.847656 50.644531 L 23.652344 48.449219 L 23.203125 48.898438 C 22.378906 49.722656 20.9375 49.722656 20.109375 48.898438 L 19.660156 48.449219 L 17.46875 50.644531 L 17.917969 51.09375 C 18.910156 52.085938 20.242188 52.648438 21.648438 52.648438 C 23.054688 52.648438 24.402344 52.085938 25.394531 51.09375 Z M 25.394531 51.09375 " fill-opacity="1" fill-rule="nonzero"/><path fill="#000000" d="M 74.296875 44.90625 C 74.296875 45.113281 74.257812 45.3125 74.175781 45.503906 C 74.097656 45.695312 73.984375 45.863281 73.839844 46.007812 C 73.695312 46.152344 73.527344 46.265625 73.335938 46.34375 C 73.144531 46.421875 72.945312 46.464844 72.742188 46.464844 C 72.535156 46.464844 72.335938 46.421875 72.144531 46.34375 C 71.953125 46.265625 71.785156 46.152344 71.640625 46.007812 C 71.496094 45.863281 71.382812 45.695312 71.304688 45.503906 C 71.222656 45.3125 71.183594 45.113281 71.183594 44.90625 C 71.183594 44.699219 71.222656 44.503906 71.304688 44.3125 C 71.382812 44.121094 71.496094 43.953125 71.640625 43.808594 C 71.785156 43.660156 71.953125 43.550781 72.144531 43.46875 C 72.335938 43.390625 72.535156 43.351562 72.742188 43.351562 C 72.945312 43.351562 73.144531 43.390625 73.335938 43.46875 C 73.527344 43.550781 73.695312 43.660156 73.839844 43.808594 C 73.984375 43.953125 74.097656 44.121094 74.175781 44.3125 C 74.257812 44.503906 74.296875 44.699219 74.296875 44.90625 Z M 74.296875 44.90625 " fill-opacity="1" fill-rule="nonzero"/><path fill="#000000" d="M 83.59375 44.90625 C 83.59375 45.113281 83.554688 45.3125 83.472656 45.503906 C 83.394531 45.695312 83.28125 45.863281 83.136719 46.007812 C 82.992188 46.152344 82.824219 46.265625 82.632812 46.34375 C 82.441406 46.421875 82.242188 46.464844 82.035156 46.464844 C 81.832031 46.464844 81.632812 46.421875 81.441406 46.34375 C 81.25 46.265625 81.082031 46.152344 80.9375 46.007812 C 80.789062 45.863281 80.679688 45.695312 80.597656 45.503906 C 80.519531 45.3125 80.480469 45.113281 80.480469 44.90625 C 80.480469 44.699219 80.519531 44.503906 80.597656 44.3125 C 80.679688 44.121094 80.789062 43.953125 80.9375 43.808594 C 81.082031 43.660156 81.25 43.550781 81.441406 43.46875 C 81.632812 43.390625 81.832031 43.351562 82.035156 43.351562 C 82.242188 43.351562 82.441406 43.390625 82.632812 43.46875 C 82.824219 43.550781 82.992188 43.660156 83.136719 43.808594 C 83.28125 43.953125 83.394531 44.121094 83.472656 44.3125 C 83.554688 44.503906 83.59375 44.699219 83.59375 44.90625 Z M 83.59375 44.90625 " fill-opacity="1" fill-rule="nonzero"/><path fill="#000000" d="M 78.945312 48.898438 C 78.121094 49.722656 76.675781 49.722656 75.851562 48.898438 L 75.402344 48.449219 L 73.207031 50.644531 L 73.660156 51.09375 C 74.652344 52.085938 75.984375 52.648438 77.386719 52.648438 C 78.792969 52.648438 80.125 52.105469 81.117188 51.09375 L 81.566406 50.644531 L 79.375 48.449219 Z M 78.945312 48.898438 " fill-opacity="1" fill-rule="nonzero"/><path fill="#000000" d="M 80.667969 22.003906 C 75.4375 15.445312 68.335938 10.609375 60.390625 8.117188 L 61.121094 7.382812 L 54.558594 0.824219 L 52.628906 2.753906 L 52.628906 0.0195312 L 43.351562 0.0195312 L 43.351562 2.738281 L 41.421875 0.804688 L 34.863281 7.367188 L 35.574219 8.078125 C 28.902344 10.160156 22.847656 13.871094 17.957031 18.949219 C 9.503906 20.671875 3.109375 28.1875 3.109375 37.148438 L 3.109375 41.101562 C 1.253906 42.191406 0 44.175781 0 46.445312 C 0 49.855469 2.773438 52.628906 6.183594 52.628906 L 10.964844 52.628906 C 12.203125 54.765625 14.074219 56.507812 16.324219 57.597656 L 15.820312 59.113281 C 11.863281 60.425781 8.996094 63.835938 8.398438 68.015625 L 7.496094 74.316406 L 15.554688 74.316406 C 21.683594 81.867188 30.195312 87.023438 39.679688 88.933594 C 42.433594 93.167969 47.210938 95.980469 52.648438 95.980469 C 57.539062 95.980469 61.53125 92.195312 61.90625 87.398438 C 69.179688 84.828125 75.570312 80.351562 80.460938 74.316406 L 91.59375 74.316406 L 90.695312 68.035156 C 90.546875 67.003906 90.265625 66.011719 89.851562 65.09375 C 93.675781 62.542969 96 58.269531 96 53.605469 L 96 40.277344 C 95.960938 31.132812 89.347656 23.558594 80.667969 22.003906 Z M 41.441406 5.171875 C 42.300781 5.867188 43.484375 6.035156 44.53125 5.585938 C 45.582031 5.152344 46.292969 4.199219 46.425781 3.09375 L 49.574219 3.09375 C 49.707031 4.199219 50.417969 5.152344 51.46875 5.585938 C 52.515625 6.015625 53.679688 5.847656 54.558594 5.171875 L 56.789062 7.402344 C 56.097656 8.265625 55.929688 9.445312 56.378906 10.496094 C 56.808594 11.546875 57.765625 12.257812 58.851562 12.390625 L 58.851562 15.539062 C 57.746094 15.667969 56.789062 16.382812 56.359375 17.429688 C 55.929688 18.480469 56.097656 19.640625 56.773438 20.523438 L 54.542969 22.753906 C 53.679688 22.078125 52.5 21.890625 51.449219 22.339844 C 50.398438 22.773438 49.6875 23.726562 49.554688 24.835938 L 46.40625 24.835938 C 46.277344 23.726562 45.5625 22.773438 44.515625 22.339844 C 43.464844 21.910156 42.300781 22.078125 41.421875 22.753906 L 39.191406 20.523438 C 39.882812 19.660156 40.054688 18.480469 39.601562 17.429688 C 39.171875 16.382812 38.214844 15.667969 37.128906 15.539062 L 37.128906 12.371094 C 38.234375 12.238281 39.191406 11.527344 39.621094 10.476562 C 40.054688 9.425781 39.882812 8.265625 39.210938 7.382812 Z M 6.183594 37.167969 C 6.183594 28.640625 13.121094 21.683594 21.667969 21.683594 C 30.214844 21.683594 37.148438 28.621094 37.148438 37.167969 L 37.148438 40.257812 L 34.054688 40.257812 L 34.054688 37.167969 C 34.054688 30.34375 28.507812 24.777344 21.667969 24.777344 C 14.824219 24.777344 9.277344 30.324219 9.277344 37.167969 L 9.277344 40.257812 L 6.183594 40.257812 Z M 21.421875 65.019531 L 21.890625 65.019531 L 22.921875 71.203125 L 20.390625 71.203125 Z M 28.65625 57.578125 L 28.976562 58.832031 L 26.316406 58.832031 C 25.453125 58.832031 24.757812 58.140625 24.757812 57.277344 C 24.757812 56.414062 25.453125 55.722656 26.316406 55.722656 C 27.421875 55.742188 28.394531 56.492188 28.65625 57.578125 Z M 26.070312 71.222656 L 24.871094 64.007812 L 26.726562 62.152344 C 29.464844 63.144531 31.449219 65.542969 31.863281 68.46875 L 32.257812 71.222656 Z M 30.71875 54.878906 C 31.355469 54.183594 31.917969 53.433594 32.367188 52.648438 L 34.035156 52.648438 L 34.035156 55.742188 C 34.035156 57.035156 33.230469 58.160156 32.085938 58.609375 L 31.636719 56.808594 C 31.488281 56.097656 31.148438 55.441406 30.71875 54.878906 Z M 19.4375 29.59375 L 18.03125 30.308594 C 16.457031 31.09375 15.480469 32.667969 15.480469 34.410156 C 15.480469 34.675781 15.519531 34.917969 15.554688 35.160156 L 12.425781 36.417969 C 12.820312 31.65625 16.8125 27.890625 21.667969 27.890625 C 26.785156 27.890625 30.945312 32.050781 30.945312 37.167969 C 30.605469 37.035156 30.230469 36.941406 29.855469 36.90625 L 19.90625 35.910156 C 19.136719 35.835938 18.554688 35.199219 18.554688 34.410156 C 18.554688 33.832031 18.875 33.324219 19.378906 33.0625 L 20.785156 32.351562 Z M 33.644531 49.554688 C 33.90625 48.5625 34.054688 47.511719 34.054688 46.464844 L 34.054688 43.371094 L 37.148438 43.371094 C 38.855469 43.371094 40.242188 44.757812 40.242188 46.464844 C 40.242188 48.167969 38.855469 49.554688 37.148438 49.554688 Z M 6.183594 49.554688 C 4.480469 49.554688 3.09375 48.167969 3.09375 46.464844 C 3.09375 44.757812 4.480469 43.371094 6.183594 43.371094 L 9.277344 43.371094 L 9.277344 46.464844 C 9.277344 47.53125 9.425781 48.5625 9.691406 49.554688 Z M 12.390625 46.445312 L 12.390625 40.804688 C 12.390625 40.164062 12.765625 39.601562 13.363281 39.359375 L 17.09375 37.859375 C 17.785156 38.460938 18.648438 38.855469 19.625 38.964844 L 29.574219 39.960938 C 30.363281 40.035156 30.964844 40.710938 30.964844 41.496094 L 30.964844 46.425781 C 30.964844 48.898438 29.988281 51.242188 28.265625 52.96875 C 27.664062 52.742188 27.007812 52.609375 26.332031 52.609375 C 24.328125 52.609375 22.621094 53.902344 21.984375 55.683594 C 21.890625 55.683594 21.796875 55.703125 21.683594 55.703125 C 16.550781 55.742188 12.390625 51.578125 12.390625 46.445312 Z M 21.667969 58.832031 C 21.761719 58.832031 21.855469 58.816406 21.949219 58.816406 C 22.246094 59.675781 22.808594 60.425781 23.523438 60.96875 L 22.566406 61.925781 L 20.75 61.925781 L 18.78125 59.957031 L 19.230469 58.589844 C 20.035156 58.757812 20.84375 58.832031 21.667969 58.832031 Z M 11.46875 68.46875 C 11.882812 65.542969 13.871094 63.144531 16.605469 62.152344 L 18.460938 64.007812 L 17.261719 71.222656 L 11.078125 71.222656 Z M 52.628906 92.890625 C 45.808594 92.890625 40.242188 87.339844 40.242188 80.5 C 40.242188 77.089844 43.015625 74.316406 46.425781 74.316406 L 46.425781 78.007812 L 43.332031 79.5625 L 43.332031 80.519531 C 43.332031 85.636719 47.492188 89.796875 52.609375 89.796875 L 53.566406 89.796875 L 55.121094 86.703125 L 58.816406 86.703125 C 58.816406 90.113281 56.039062 92.890625 52.628906 92.890625 Z M 60.933594 84.453125 C 60.371094 83.929688 59.640625 83.609375 58.816406 83.609375 L 55.121094 83.609375 C 53.941406 83.609375 52.875 84.265625 52.347656 85.316406 L 51.691406 86.628906 C 49.011719 86.234375 46.894531 84.097656 46.5 81.4375 L 47.8125 80.78125 C 48.863281 80.257812 49.519531 79.1875 49.519531 78.007812 L 49.519531 74.316406 C 49.519531 72.609375 48.132812 71.222656 46.425781 71.222656 C 41.308594 71.222656 37.148438 75.382812 37.148438 80.5 C 37.148438 82.207031 37.429688 83.816406 37.933594 85.355469 C 30.925781 83.480469 24.570312 79.65625 19.625 74.316406 L 35.835938 74.316406 L 34.9375 68.035156 C 34.597656 65.636719 33.472656 63.5 31.84375 61.851562 C 34.84375 61.417969 37.148438 58.851562 37.148438 55.742188 L 37.148438 52.648438 C 40.558594 52.648438 43.332031 49.875 43.332031 46.464844 C 43.332031 44.175781 42.078125 42.207031 40.242188 41.140625 L 40.242188 37.183594 C 40.242188 27.328125 32.519531 19.265625 22.792969 18.667969 C 26.144531 15.78125 29.933594 13.511719 34.035156 11.921875 L 34.035156 18.613281 L 36.753906 18.613281 L 34.824219 20.542969 L 41.382812 27.101562 L 43.3125 25.171875 L 43.3125 27.890625 L 52.59375 27.890625 L 52.59375 25.171875 L 54.523438 27.101562 L 61.082031 20.542969 L 59.152344 18.613281 L 61.871094 18.613281 L 61.871094 11.921875 C 67.359375 14.039062 72.328125 17.394531 76.339844 21.722656 C 66.554688 22.246094 58.757812 30.34375 58.757812 40.242188 L 58.757812 53.566406 C 58.757812 58.234375 61.082031 62.507812 64.90625 65.054688 C 64.492188 65.972656 64.210938 66.96875 64.0625 68 L 63.164062 74.277344 L 76.28125 74.277344 C 72.085938 78.90625 66.835938 82.355469 60.933594 84.453125 Z M 66.800781 71.222656 L 67.191406 68.46875 C 67.585938 65.710938 69.367188 63.425781 71.839844 62.339844 C 72.851562 64.90625 74.351562 67.265625 76.300781 69.214844 L 77.386719 70.304688 L 78.476562 69.214844 C 80.425781 67.265625 81.925781 64.90625 82.9375 62.339844 C 85.410156 63.425781 87.191406 65.710938 87.585938 68.46875 L 87.976562 71.222656 Z M 77.386719 55.742188 C 72.273438 55.742188 68.109375 51.578125 68.109375 46.464844 L 68.109375 40.820312 C 68.109375 40.183594 68.484375 39.621094 69.085938 39.378906 L 72.796875 37.898438 C 73.488281 38.496094 74.371094 38.890625 75.34375 38.984375 L 85.296875 39.976562 C 86.085938 40.054688 86.683594 40.726562 86.683594 41.515625 L 86.683594 46.445312 C 86.683594 51.578125 82.503906 55.742188 77.386719 55.742188 Z M 77.386719 58.832031 C 78.214844 58.832031 79.019531 58.738281 79.804688 58.589844 L 80.40625 60.371094 C 79.75 62.339844 78.71875 64.195312 77.386719 65.804688 C 76.058594 64.195312 75.027344 62.339844 74.371094 60.371094 L 74.972656 58.589844 C 75.757812 58.757812 76.5625 58.832031 77.386719 58.832031 Z M 92.871094 53.605469 C 92.871094 57.203125 91.089844 60.484375 88.183594 62.488281 C 86.910156 60.96875 85.203125 59.789062 83.253906 59.132812 L 82.75 57.613281 C 86.910156 55.609375 89.777344 51.375 89.777344 46.464844 L 89.777344 41.535156 C 89.777344 39.132812 87.976562 37.148438 85.597656 36.90625 L 75.644531 35.910156 C 74.878906 35.835938 74.296875 35.199219 74.296875 34.410156 C 74.296875 33.832031 74.613281 33.324219 75.121094 33.0625 L 76.527344 32.351562 L 75.140625 29.574219 L 73.734375 30.289062 C 72.160156 31.074219 71.183594 32.648438 71.183594 34.394531 C 71.183594 34.65625 71.203125 34.898438 71.242188 35.140625 L 67.90625 36.472656 C 66.125 37.183594 64.980469 38.871094 64.980469 40.785156 L 64.980469 46.425781 C 64.980469 51.335938 67.867188 55.570312 72.007812 57.578125 L 71.503906 59.09375 C 69.554688 59.75 67.847656 60.914062 66.574219 62.449219 C 63.648438 60.464844 61.886719 57.164062 61.886719 53.566406 L 61.886719 40.242188 C 61.886719 31.710938 68.824219 24.757812 77.371094 24.757812 C 85.917969 24.757812 92.851562 31.695312 92.851562 40.242188 Z M 92.871094 53.605469 " fill-opacity="1" fill-rule="nonzero"/><path fill="#000000" d="M 40.242188 55.742188 L 43.332031 55.742188 L 43.332031 58.832031 L 40.242188 58.832031 Z M 40.242188 55.742188 " fill-opacity="1" fill-rule="nonzero"/><path fill="#000000" d="M 46.425781 55.742188 L 49.519531 55.742188 L 49.519531 58.832031 L 46.425781 58.832031 Z M 46.425781 55.742188 " fill-opacity="1" fill-rule="nonzero"/><path fill="#000000" d="M 52.628906 55.742188 L 55.722656 55.742188 L 55.722656 58.832031 L 52.628906 58.832031 Z M 52.628906 55.742188 " fill-opacity="1" fill-rule="nonzero"/></svg>